<?xml version="1.0" encoding="utf-8"?>
<!-- Generator: Adobe Illustrator 18.1.0, SVG Export Plug-In . SVG Version: 6.00 Build 0)  -->
<svg version="1.1" id="Layer_1" xmlns="http://www.w3.org/2000/svg" xmlns:xlink="http://www.w3.org/1999/xlink" x="0px" y="0px"
	 viewBox="0 0 185.7 136" enable-background="new 0 0 185.7 136" xml:space="preserve">
<g>
	<g>
		<path d="M9.8,128.7l3.6,0.6v3.1c0,1.8-1.5,3.3-3.3,3.3H3.3c-1.8,0-3.3-1.5-3.3-3.3v-13.5c0-1.8,1.5-3.3,3.3-3.3h6.8
			c1.8,0,3.3,1.5,3.3,3.3v2.9l-3.6,0.6v-2.7c0-0.5-0.4-0.8-0.8-0.8H4.5c-0.5,0-0.8,0.3-0.8,0.8v11.9c0,0.5,0.4,0.8,0.8,0.8H9
			c0.5,0,0.8-0.3,0.8-0.8V128.7z"/>
		<path d="M17.1,132.4v-13.5c0-1.8,1.5-3.3,3.3-3.3h7.1c1.8,0,3.3,1.5,3.3,3.3v13.5c0,1.8-1.5,3.3-3.3,3.3h-7.1
			C18.5,135.7,17.1,134.3,17.1,132.4z M27.2,119.7c0-0.5-0.4-0.8-0.8-0.8h-4.8c-0.5,0-0.8,0.3-0.8,0.8v11.9c0,0.5,0.4,0.8,0.8,0.8
			h4.8c0.5,0,0.8-0.3,0.8-0.8V119.7z"/>
		<path d="M42.1,128h-3.8v7.8h-3.6v-20.2h10.6c1.8,0,3.3,1.5,3.3,3.3v5.7c0,1.6-1.1,2.9-2.5,3.2l3.9,7.9h-4L42.1,128z M44.9,119.7
			c0-0.5-0.4-0.8-0.8-0.8h-5.8v5.7h5.8c0.5,0,0.8-0.3,0.8-0.8V119.7z"/>
		<path d="M53.2,115.6h10.3c1.8,0,3.3,1.5,3.3,3.3v5.7c0,1.8-1.5,3.3-3.3,3.3h-6.6v7.8h-3.6V115.6z M63.1,119.7
			c0-0.5-0.4-0.8-0.8-0.8h-5.5v5.7h5.5c0.5,0,0.8-0.3,0.8-0.8V119.7z"/>
		<path d="M76,135.7h-1.4v-20.2H76V135.7z"/>
		<path d="M80.3,135.7v-14.3h1.3v1.4c0.5-0.4,1.2-0.7,2-1c1.2-0.4,2.7-0.7,3.7-0.7c2,0,3.4,1.3,3.4,3.4v11.3h-1.3v-11.1
			c0-1.5-0.8-2.2-2.2-2.2c-0.8,0-2.2,0.3-3.4,0.7c-1.4,0.4-2.2,1-2.2,2.3v10.4H80.3z"/>
		<path d="M94.6,124.5c0-2.1,1.4-3.4,3.4-3.4c1.1,0,2.5,0.3,3.7,0.7c0.8,0.2,1.5,0.5,2,1v-7.2l1.3-0.2v20.4h-1.3v-1.4
			c-0.5,0.4-1.2,0.7-2,1c-1.2,0.4-2.7,0.7-3.7,0.7c-2,0-3.4-1.3-3.4-3.4V124.5z M103.7,125.4c0-1.3-0.8-1.9-2.2-2.3
			c-1.2-0.4-2.6-0.7-3.4-0.7c-1.5,0-2.2,0.8-2.2,2.2v8c0,1.5,0.8,2.2,2.2,2.2c0.8,0,2.2-0.3,3.4-0.7c1.4-0.4,2.2-1,2.2-2.3V125.4z"
			/>
		<path d="M119.4,121.4v14.3h-1.3v-1.4c-0.5,0.4-1.2,0.7-2,1c-1.2,0.4-2.7,0.7-3.7,0.7c-2,0-3.4-1.3-3.4-3.4v-11.3h1.3v11.1
			c0,1.5,0.8,2.2,2.2,2.2c0.8,0,2.2-0.3,3.4-0.7c1.4-0.4,2.2-1,2.2-2.3v-10.4H119.4z"/>
		<path d="M129.8,129.5c-1.3-0.4-2.1-0.6-3.5-1c-1.8-0.5-3.1-1.2-3.1-3v-0.8c0-2.1,1.4-3.4,3.4-3.4h3.3c2,0,3.4,1.3,3.4,3.4v0.7
			l-1.3,0.2v-0.8c0-1.5-0.8-2.2-2.2-2.2h-3c-1.5,0-2.2,0.8-2.2,2.2v0.5c0,1.3,0.9,1.7,2.3,2.1c1.2,0.3,2.3,0.6,3.6,1
			c1.8,0.5,3,1.4,3,3.1v0.8c0,2.1-1.4,3.4-3.4,3.4h-3.6c-2,0-3.4-1.3-3.4-3.4v-0.6l1.3-0.2v0.7c0,1.5,0.8,2.2,2.2,2.2h3.2
			c1.5,0,2.2-0.8,2.2-2.2v-0.6C132.1,130.5,131.5,130,129.8,129.5z"/>
		<path d="M135.8,121.4h2.5v-3.7l1.3-0.2v3.9h4.5l-0.2,1.2h-4.2v9.7c0,1.5,0.8,2.2,2.2,2.2h1.9v1.2h-2.1c-2,0-3.4-1.3-3.4-3.4v-9.8
			h-2.5V121.4z"/>
		<path d="M153.4,122.3c-1,0.5-1.9,0.9-2.8,1.5c-1.2,0.7-2.2,1.4-2.2,2.7v9.2h-1.3v-14.3h1.3v2.4c1.1-0.8,3-1.9,4.8-2.7L153.4,122.3
			z"/>
		<path d="M156.2,115.5h1.3v3h-1.3V115.5z M156.2,121.4h1.3v14.3h-1.3V121.4z"/>
		<path d="M162.7,128.5v3.7c0,1.5,0.8,2.2,2.2,2.2h3.5c1.5,0,2.2-0.8,2.2-2.2v-0.8l1.3,0.2v0.7c0,2.1-1.4,3.4-3.4,3.4h-3.8
			c-2,0-3.4-1.3-3.4-3.4v-7.6c0-2.1,1.4-3.4,3.4-3.4h3.7c2,0,3.4,1.3,3.4,3.4v3.8H162.7z M162.7,127.4h7.8v-2.5
			c0-1.5-0.8-2.2-2.2-2.2h-3.4c-1.5,0-2.2,0.8-2.2,2.2V127.4z"/>
		<path d="M182.1,129.5c-1.3-0.4-2.1-0.6-3.5-1c-1.8-0.5-3.1-1.2-3.1-3v-0.8c0-2.1,1.4-3.4,3.4-3.4h3.3c2,0,3.4,1.3,3.4,3.4v0.7
			l-1.3,0.2v-0.8c0-1.5-0.8-2.2-2.2-2.2h-3c-1.5,0-2.2,0.8-2.2,2.2v0.5c0,1.3,0.9,1.7,2.3,2.1c1.2,0.3,2.3,0.6,3.6,1
			c1.8,0.5,3,1.4,3,3.1v0.8c0,2.1-1.4,3.4-3.4,3.4h-3.6c-2,0-3.4-1.3-3.4-3.4v-0.6l1.3-0.2v0.7c0,1.5,0.8,2.2,2.2,2.2h3.2
			c1.5,0,2.2-0.8,2.2-2.2v-0.6C184.4,130.5,183.7,130,182.1,129.5z"/>
	</g>
</g>
<g>
	<path fill="#BE1E2D" d="M92.4,2.1c-26.5,0-48.1,21.6-48,48.1c0,12.2,4.6,23.9,13,32.8l0.6,0.6l20.6-4.6l-4.1-42.6
		c0-5,2-9.8,5.5-13.3c3.5-3.6,8.2-5.5,13.2-5.5c6.7,0,12.9,3.6,16.2,9.4c1.6,2.8,2.5,6,2.5,9.3l-4.1,42.8l19.3,4.3l0.6-0.6
		c8.2-8.9,12.7-20.5,12.7-32.5C140.5,23.7,118.9,2.1,92.4,2.1z"/>
	<path fill="#E6E7E8" d="M111.5,36.2c0-3.1-0.9-6.3-2.5-9c-3.3-5.6-9.3-9.1-15.9-9.1c-4.9,0-9.5,1.9-12.9,5.4
		c-3.5,3.5-5.4,8.1-5.4,12.9l2,21.1c0.4,3.7,2,8.5,3.8,11l3.4,4.7l18.3,0l3.4-4.7c1.8-2.5,3.4-7.3,3.8-11l2-21.1L111.5,36.2
		L111.5,36.2z"/>
	<path fill="#E6E7E8" d="M107.5,79.4c-0.1,0-0.2-0.1-0.2-0.2l1.4-14.3l-6.1,8.6c0,0.1-0.1,0.1-0.2,0.1l-18.5,0c-0.1,0-0.1,0-0.2-0.1
		l-6.1-8.6L79,79.2c0,0.1-0.1,0.2-0.2,0.2L58.2,84l2,1.8c8.8,8,20.3,12.4,32.2,12.4h0c12,0,23.6-4.5,32.5-12.7l2-1.8L107.5,79.4z
		 M92.4,96.8L92.4,96.8L92.4,96.8L92.4,96.8z"/>
	<path d="M92.4,0C64.7,0,42.2,22.5,42.2,50.2c0,27.7,22.5,50.2,50.2,50.2c27.7,0,50.2-22.5,50.2-50.2C142.6,22.5,120,0,92.4,0z
		 M92.4,96.8c-12,0-23-4.5-31.2-12l17.9-4c0.8-0.2,1.4-0.9,1.3-1.7l-0.9-9l3.1,4.3c0.3,0.4,0.8,0.7,1.3,0.7l18.5,0
		c0.5,0,1-0.3,1.3-0.7l3.1-4.3l-0.9,9c-0.1,0.8,0.5,1.6,1.3,1.7l16.7,3.7C115.6,92.1,104.6,96.8,92.4,96.8z M78.3,57.4l-2-21
		c0-9.3,7.6-16.9,16.9-16.9c6,0,11.6,3.2,14.6,8.4c1.5,2.5,2.3,5.5,2.3,8.3l-2,21.1c-0.3,3.4-1.9,8.1-3.5,10.3l-2.9,4.1l-16.8,0
		c0,0-1.3-1.8-2.9-4.1C80.2,65.4,78.6,60.8,78.3,57.4z M126.7,81.7L126.7,81.7l-17.4-3.8l3.9-41.6c0-3.6-0.9-7-2.7-10.1
		c-3.6-6.2-10.3-10.1-17.5-10.1C82,16.2,73,25.3,73,36.5L77,78l-18.6,4.1l0,0c-7.8-8.3-12.6-19.5-12.6-31.8
		c0-25.7,20.9-46.7,46.6-46.7c25.7,0,46.7,20.9,46.7,46.6C139.1,62.3,134.4,73.4,126.7,81.7z"/>
</g>
</svg>
