<?xml version="1.0" encoding="utf-8"?>
<!-- Generator: Adobe Illustrator 18.1.0, SVG Export Plug-In . SVG Version: 6.00 Build 0)  -->
<svg version="1.1" id="Layer_1" xmlns="http://www.w3.org/2000/svg" xmlns:xlink="http://www.w3.org/1999/xlink" x="0px" y="0px"
	 viewBox="0 0 231.7 100.4" enable-background="new 0 0 231.7 100.4" xml:space="preserve">
<g>
	<g>
		<path d="M129.7,40.6l3.6,0.6v3.1c0,1.8-1.5,3.3-3.3,3.3h-6.8c-1.8,0-3.3-1.5-3.3-3.3V30.8c0-1.8,1.5-3.3,3.3-3.3h6.8
			c1.8,0,3.3,1.5,3.3,3.3v2.9l-3.6,0.6v-2.7c0-0.5-0.4-0.8-0.8-0.8h-4.5c-0.5,0-0.8,0.3-0.8,0.8v11.9c0,0.5,0.4,0.8,0.8,0.8h4.5
			c0.5,0,0.8-0.3,0.8-0.8V40.6z"/>
		<path d="M137,44.3V30.8c0-1.8,1.5-3.3,3.3-3.3h7.1c1.8,0,3.3,1.5,3.3,3.3v13.5c0,1.8-1.5,3.3-3.3,3.3h-7.1
			C138.5,47.6,137,46.2,137,44.3z M147.1,31.6c0-0.5-0.4-0.8-0.8-0.8h-4.8c-0.5,0-0.8,0.3-0.8,0.8v11.9c0,0.5,0.4,0.8,0.8,0.8h4.8
			c0.5,0,0.8-0.3,0.8-0.8V31.6z"/>
		<path d="M162,39.9h-3.8v7.8h-3.6V27.5h10.6c1.8,0,3.3,1.5,3.3,3.3v5.7c0,1.6-1.1,2.9-2.5,3.2l3.9,7.9h-4L162,39.9z M164.8,31.6
			c0-0.5-0.4-0.8-0.8-0.8h-5.8v5.7h5.8c0.5,0,0.8-0.3,0.8-0.8V31.6z"/>
		<path d="M173.1,27.5h10.3c1.8,0,3.3,1.5,3.3,3.3v5.7c0,1.8-1.5,3.3-3.3,3.3h-6.6v7.8h-3.6V27.5z M183.1,31.6
			c0-0.5-0.4-0.8-0.8-0.8h-5.5v5.7h5.5c0.5,0,0.8-0.3,0.8-0.8V31.6z"/>
		<path d="M122,74.6h-1.4V54.5h1.4V74.6z"/>
		<path d="M126.3,74.6V60.3h1.3v1.4c0.5-0.4,1.2-0.7,2-1c1.2-0.4,2.7-0.7,3.7-0.7c2,0,3.4,1.3,3.4,3.4v11.3h-1.3V63.5
			c0-1.5-0.8-2.2-2.2-2.2c-0.8,0-2.2,0.3-3.4,0.7c-1.4,0.4-2.2,1-2.2,2.3v10.4H126.3z"/>
		<path d="M140.6,63.4c0-2.1,1.4-3.4,3.4-3.4c1.1,0,2.5,0.3,3.7,0.7c0.8,0.2,1.5,0.5,2,1v-7.2l1.3-0.2v20.4h-1.3v-1.4
			c-0.5,0.4-1.2,0.7-2,1c-1.2,0.4-2.7,0.7-3.7,0.7c-2,0-3.4-1.3-3.4-3.4V63.4z M149.7,64.3c0-1.3-0.8-1.9-2.2-2.3
			c-1.2-0.4-2.6-0.7-3.4-0.7c-1.5,0-2.2,0.8-2.2,2.2v8c0,1.5,0.8,2.2,2.2,2.2c0.8,0,2.2-0.3,3.4-0.7c1.4-0.4,2.2-1,2.2-2.3V64.3z"/>
		<path d="M165.5,60.3v14.3h-1.3v-1.4c-0.5,0.4-1.2,0.7-2,1c-1.2,0.4-2.7,0.7-3.7,0.7c-2,0-3.4-1.3-3.4-3.4V60.3h1.3v11.1
			c0,1.5,0.8,2.2,2.2,2.2c0.8,0,2.2-0.3,3.4-0.7c1.4-0.4,2.2-1,2.2-2.3V60.3H165.5z"/>
		<path d="M175.9,68.4c-1.3-0.4-2.1-0.6-3.5-1c-1.8-0.5-3.1-1.2-3.1-3v-0.8c0-2.1,1.4-3.4,3.4-3.4h3.3c2,0,3.4,1.3,3.4,3.4v0.7
			l-1.3,0.2v-0.8c0-1.5-0.8-2.2-2.2-2.2h-3c-1.5,0-2.2,0.8-2.2,2.2v0.5c0,1.3,0.9,1.7,2.3,2.1c1.2,0.3,2.3,0.6,3.6,1
			c1.8,0.5,3,1.4,3,3.1v0.8c0,2.1-1.4,3.4-3.4,3.4h-3.6c-2,0-3.4-1.3-3.4-3.4v-0.6l1.3-0.2v0.7c0,1.5,0.8,2.2,2.2,2.2h3.2
			c1.5,0,2.2-0.8,2.2-2.2v-0.6C178.2,69.4,177.5,68.9,175.9,68.4z"/>
		<path d="M181.8,60.3h2.5v-3.7l1.3-0.2v3.9h4.5l-0.2,1.2h-4.2v9.7c0,1.5,0.8,2.2,2.2,2.2h1.9v1.2h-2.1c-2,0-3.4-1.3-3.4-3.4v-9.8
			h-2.5V60.3z"/>
		<path d="M199.4,61.2c-1,0.5-1.9,0.9-2.8,1.5c-1.2,0.7-2.2,1.4-2.2,2.7v9.2h-1.3V60.3h1.3v2.4c1.1-0.8,3-1.9,4.8-2.7L199.4,61.2z"
			/>
		<path d="M202.2,54.4h1.3v3h-1.3V54.4z M202.2,60.3h1.3v14.3h-1.3V60.3z"/>
		<path d="M208.7,67.4v3.7c0,1.5,0.8,2.2,2.2,2.2h3.5c1.5,0,2.2-0.8,2.2-2.2v-0.8l1.3,0.2v0.7c0,2.1-1.4,3.4-3.4,3.4h-3.8
			c-2,0-3.4-1.3-3.4-3.4v-7.6c0-2.1,1.4-3.4,3.4-3.4h3.7c2,0,3.4,1.3,3.4,3.4v3.8H208.7z M208.7,66.3h7.8v-2.5
			c0-1.5-0.8-2.2-2.2-2.2h-3.4c-1.5,0-2.2,0.8-2.2,2.2V66.3z"/>
		<path d="M228.1,68.4c-1.3-0.4-2.1-0.6-3.5-1c-1.8-0.5-3.1-1.2-3.1-3v-0.8c0-2.1,1.4-3.4,3.4-3.4h3.3c2,0,3.4,1.3,3.4,3.4v0.7
			l-1.3,0.2v-0.8c0-1.5-0.8-2.2-2.2-2.2h-3c-1.5,0-2.2,0.8-2.2,2.2v0.5c0,1.3,0.9,1.7,2.3,2.1c1.2,0.3,2.3,0.6,3.6,1
			c1.8,0.5,3,1.4,3,3.1v0.8c0,2.1-1.4,3.4-3.4,3.4h-3.6c-2,0-3.4-1.3-3.4-3.4v-0.6l1.3-0.2v0.7c0,1.5,0.8,2.2,2.2,2.2h3.2
			c1.5,0,2.2-0.8,2.2-2.2v-0.6C230.4,69.4,229.7,68.9,228.1,68.4z"/>
	</g>
</g>
<g>
	<path fill="#BE1E2D" d="M50.2,2.1c-26.5,0-48.1,21.6-48,48.1c0,12.2,4.6,23.9,13,32.8l0.6,0.6l20.6-4.6l-4.1-42.6
		c0-5,2-9.8,5.5-13.3c3.5-3.6,8.2-5.5,13.2-5.5c6.7,0,12.9,3.6,16.2,9.4c1.6,2.8,2.5,6,2.5,9.3l-4.1,42.8l19.3,4.3l0.6-0.6
		c8.2-8.9,12.7-20.5,12.7-32.5C98.2,23.7,76.7,2.1,50.2,2.1z"/>
	<path fill="#E6E7E8" d="M69.2,36.2c0-3.1-0.9-6.3-2.5-9c-3.3-5.6-9.3-9.1-15.9-9.1c-4.9,0-9.5,1.9-12.9,5.4
		c-3.5,3.5-5.4,8.1-5.4,12.9l2,21.1c0.4,3.7,2,8.5,3.8,11l3.4,4.7l18.3,0l3.4-4.7c1.8-2.5,3.4-7.3,3.8-11l2-21.1L69.2,36.2
		L69.2,36.2z"/>
	<path fill="#E6E7E8" d="M65.3,79.4c-0.1,0-0.2-0.1-0.2-0.2l1.4-14.3l-6.1,8.6c0,0.1-0.1,0.1-0.2,0.1l-18.5,0c-0.1,0-0.1,0-0.2-0.1
		l-6.1-8.6l1.4,14.3c0,0.1-0.1,0.2-0.2,0.2L16,84l2,1.8c8.8,8,20.3,12.4,32.2,12.4h0c12,0,23.6-4.5,32.5-12.7l2-1.8L65.3,79.4z
		 M50.2,96.8L50.2,96.8L50.2,96.8L50.2,96.8z"/>
	<path d="M50.2,0C22.5,0,0,22.5,0,50.2c0,27.7,22.5,50.2,50.2,50.2c27.7,0,50.2-22.5,50.2-50.2C100.3,22.5,77.8,0,50.2,0z
		 M50.2,96.8c-12,0-23-4.5-31.2-12l17.9-4c0.8-0.2,1.4-0.9,1.3-1.7l-0.9-9l3.1,4.3c0.3,0.4,0.8,0.7,1.3,0.7l18.5,0
		c0.5,0,1-0.3,1.3-0.7l3.1-4.3l-0.9,9c-0.1,0.8,0.5,1.6,1.3,1.7l16.7,3.7C73.4,92.1,62.3,96.8,50.2,96.8z M36.1,57.4l-2-21
		c0-9.3,7.6-16.9,16.9-16.9c6,0,11.6,3.2,14.6,8.4c1.5,2.5,2.3,5.5,2.3,8.3l-2,21.1c-0.3,3.4-1.9,8.1-3.5,10.3l-2.9,4.1l-16.8,0
		c0,0-1.3-1.8-2.9-4.1C38,65.4,36.4,60.8,36.1,57.4z M84.5,81.7L84.5,81.7l-17.4-3.8l3.9-41.6c0-3.6-0.9-7-2.7-10.1
		c-3.6-6.2-10.3-10.1-17.5-10.1c-11.1,0-20.2,9.1-20.1,20.3l4,41.4l-18.6,4.1l0,0C8.3,73.7,3.5,62.5,3.5,50.2
		c0-25.7,20.9-46.7,46.6-46.7c25.7,0,46.7,20.9,46.7,46.6C96.8,62.3,92.2,73.4,84.5,81.7z"/>
</g>
</svg>
